/* XPM */
static char *result[] = {
/* columns rows colors chars-per-pixel */
"32 32 33 1 ",
"  c #0A0E2F",
". c #202020",
"X c #282828",
"o c gray16",
"O c #2A2A2A",
"+ c #2C2C2C",
"@ c #2D2D2D",
"# c #2F2F2F",
"$ c #313131",
"% c #323232",
"& c gray20",
"* c #353535",
"= c #373737",
"- c gray22",
"; c #3A3A3A",
": c #3C3C3C",
"> c #3E3E3E",
", c #3F3F3F",
"< c #13194A",
"1 c #423858",
"2 c #414141",
"3 c #434343",
"4 c #464646",
"5 c #4C4C4C",
"6 c gray31",
"7 c #585858",
"8 c #434A65",
"9 c #293489",
"0 c #3235A0",
"q c #3932BE",
"w c #5A5DD0",
"e c #919BE7",
"r c #BDB8F8",
/* pixels */
"44444+..:::::344::,44+..@@%:::::",
"44444+..:::::344::,44+..@@%:::::",
"44444+..:::::344::,44+..@@%:::::",
"44444+..:::::344::,44+..@@%:::::",
"44444+..:::::34<<:,44+..@@%:::::",
",,,,,O..%%*::>,<<%-44+..==*%%%%%",
":::::o..@@%::<<rr  44+..::=@@@@@",
":::::o..@@%::<<rr  44+..::=@@@@@",
".............<<ee  .............",
".............<<ee  .............",
"++++++++$$$<<rrqq99  #$$++++++++",
"44444444777<<rrqq99  67744444444",
"44444<<<<<<rreewwqq99      44444",
",,,,,<<<<<<rreewwqq99      ,,,,,",
":::::<<rreeeeqqeewwqq0099  :::::",
":::::<<rreeeeqqeewwqq0099  :::::",
"@@@@@@@  wwqqeewwww0088  :::::::",
"@@@@@@@  wwqqeewwww0088  :::::::",
"oooooooo&<<88ww000099  o&&&&&&&&",
".........<<88ww000099  .........",
".......<<eewwqq88000099  .......",
";;;;;X.<<eewwqq88000099  ;>44444",
"44444+.  wwqq11  qqqq00  4577777",
"44444+.  wwqq11  qqqq00  4577777",
"77777  99qq    44    8811  44444",
"77777  99qq    44    8811  44444",
"66666      >>233>>244      33333",
":::::      @@=::@@*44      :::::",
":::::o..@@@@@=::@@*44+..@@%:::::",
":::::o..@@@@@=::@@*44+..@@%:::::",
":::::o..@@@@@=::@@*44+..@@%:::::",
":::::o..@@@@@=::@@*44+..@@%:::::"
};
