/* XPM */
static char *result[] = {
/* columns rows colors chars-per-pixel */
"32 32 192 2 ",
"   c #2F1F1A",
".  c #23201F",
"X  c #35271A",
"o  c #211F23",
"O  c #251B2B",
"+  c #2A1838",
"@  c #37173D",
"#  c #202020",
"$  c #2C2C2C",
"%  c #3D322F",
"&  c #2D2333",
"*  c #2F2139",
"=  c #2D2930",
"-  c #32243C",
";  c #312835",
":  c #333333",
">  c #3B363E",
",  c #3C3C3C",
"<  c #373538",
"1  c #362C29",
"2  c #461F12",
"3  c #481E10",
"4  c #481D1B",
"5  c #53301A",
"6  c #6B2D18",
"7  c #4A1B35",
"8  c #472E26",
"9  c #4A3936",
"0  c #502D2E",
"q  c #733722",
"w  c #654902",
"e  c #524030",
"r  c #46403D",
"t  c #6F472A",
"y  c #62403D",
"u  c #2F0F46",
"i  c #310D4B",
"p  c #2E1242",
"a  c #321345",
"s  c #321B43",
"d  c #321249",
"f  c #391F4B",
"g  c #370F53",
"h  c #390F56",
"j  c #391255",
"k  c #3C105B",
"l  c #371054",
"z  c #342142",
"x  c #372843",
"c  c #3B264A",
"v  c #3C3343",
"b  c #3E2253",
"n  c #4B175E",
"m  c #403647",
"M  c #443E49",
"N  c #402552",
"B  c #4A3658",
"V  c #552E5C",
"C  c #792F40",
"Z  c #762C5F",
"A  c #411263",
"S  c #49146D",
"D  c #491D68",
"F  c #4D1673",
"G  c #4E1973",
"H  c #54177E",
"J  c #501776",
"K  c #601E6C",
"L  c #5C226E",
"P  c #512C6B",
"I  c #6C227F",
"U  c #6E3D6F",
"Y  c #464546",
"T  c #4E4E4E",
"R  c #48414D",
"E  c #504B53",
"W  c #555354",
"Q  c #585858",
"!  c #4E4454",
"~  c #765A4F",
"^  c #5D4B68",
"/  c #675273",
"(  c #636161",
")  c #6D6B6B",
"_  c #666068",
"`  c #757373",
"'  c #8F3C20",
"]  c #926C03",
"[  c #A17510",
"{  c #9A4B31",
"}  c #A54E31",
"|  c #A55639",
" . c #9B682A",
".. c #C15034",
"X. c #D65A31",
"o. c #C4613C",
"O. c #865543",
"+. c #A96851",
"@. c #B96E53",
"#. c #8B4F7B",
"$. c #997C71",
"%. c #D67752",
"&. c #C67156",
"*. c #E57C54",
"=. c #EA7B51",
"-. c #BB8A05",
";. c #DCB13D",
":. c #B98F7F",
">. c #C99B56",
",. c #EA8057",
"<. c #ED835A",
"1. c #E1805A",
"2. c #C68B7B",
"3. c #CF946E",
"4. c #EC8861",
"5. c #EFC142",
"6. c #5A1A85",
"7. c #5D1B8B",
"8. c #551780",
"9. c #641F8A",
"0. c #631C93",
"q. c #681D9B",
"w. c #6A2B94",
"e. c #692399",
"r. c #772898",
"t. c #6E2D8B",
"y. c #6C1EA2",
"u. c #721FAB",
"i. c #6E22A3",
"p. c #7420AD",
"a. c #7929A8",
"s. c #7721B2",
"d. c #7922B5",
"f. c #7D23BB",
"g. c #7E32B1",
"h. c #773CA0",
"j. c #754B90",
"k. c #903B9E",
"l. c #873892",
"z. c #883DAE",
"x. c #8125BE",
"c. c #832ABE",
"v. c #8432B0",
"b. c #994F9B",
"n. c #A24F98",
"m. c #A14D96",
"M. c #914DB0",
"N. c #8425C4",
"B. c #8428C3",
"V. c #882CC7",
"C. c #8A2ACC",
"Z. c #8727C8",
"A. c #902FCC",
"S. c #943DCF",
"D. c #8F2CD2",
"F. c #912DD4",
"G. c #9530D9",
"H. c #9A3ADB",
"J. c #9536D5",
"K. c #8937C0",
"L. c #9D41C0",
"P. c #9C40D9",
"I. c #9A59C7",
"U. c #A041CC",
"Y. c #A150D8",
"T. c #B25FD4",
"R. c #A148DD",
"E. c #AB6ED4",
"W. c #A751E1",
"Q. c #AD60E2",
"!. c #938C8C",
"~. c #999696",
"^. c #948B96",
"/. c #A49B93",
"(. c #AAA7A7",
"). c #CF8D95",
"_. c #CF8B8A",
"`. c #D1A08D",
"'. c #D5A998",
"]. c #E0AF9C",
"[. c #ECB9A5",
"{. c #F7CEBD",
"}. c #C6BDC5",
"|. c #C4C1C2",
" X c #CAC6C6",
".X c #DAD6D6",
"XX c #DDDCDC",
"oX c #D5D2D2",
"OX c #E0DEDE",
"+X c #DEDAE1",
"@X c #E3E2E2",
"#X c #F6F6F6",
/* pixels */
"Y Y Y Y Y $ # # , , , , , Y Y Y , , , Y Y $ # # $ $ : , , , , , ",
"Y Y Y Y Y : # # , , , , , Y Y Y > d d d d a a + $ $ : , , , , , ",
"Y Y Y Y Y $ # # , , , , , , Y z D E.E.E.I.M.[ t a p d , , , , , ",
"Y Y Y Y Y $ # # , , , , , v c M.I.R.M.h.S.P.n.l.e.y.q.s - , , , ",
"Y Y Y Y Y $ # # , , , v c P h.Y.E._.#.S 6.7.6.6.H H H i z , , , ",
", Y , , Y $ # # : : * b e.M.P.G.S.).n.i.7.H i p z z z i s : : : ",
", , , , , # # # & * G 7.P.H.H.b.n.H.H.G.V.p.d + , , < s - $ $ $ ",
", , , > v & O O d g b.M.F.H.P.+.+.F.F.F.k.l.g p > , < $ $ $ $ $ ",
"# # O d A A A A A S >.3.s.s.s.s.s.s.d.d. . .S A i O # # # # # # ",
"# O d 0.f.f.f.f.0.F S S F F F G G G G G F S S A g O o O # # # # ",
"$ $ $ s i i i i 7.N.x.N.G.G.G.Q.Q.Q.Q.Q.H.C.S e.G.S i i s $ $ $ ",
"Y Y Y Y Y R v i A F h g l l l j l l l l l A D.C.N.f.f.f.0.i v Y ",
"Y Y Y Y Y Y Y Y 9 4 &.@.9 !.+XC 5 ..2.}._ E k A k k h k b Y Y Y ",
", , Y , , Y Y Y 8 2 %.%.9 /.#X&.o.=.2.(.( W M M M v v > v , , v ",
", , , , , Y r 8 O.@.*.*.@.3.[.4.1.:.$.) B c Y Y Y Y Y , , , , , ",
", , , , , Y r 8 ~ $.].].`.[.{.[.'.` / t.9.7.c v Y Y Y , , , , , ",
"$ $ $ $ $ $ = + R W oX@XoX.XXX(.^.P w.g.Z.x.H A x > , , , , , , ",
"$ $ $ $ $ = ; j B W @X#X#XXX|.) ^ p.y.q.A.F.N.9.i > , , , , , , ",
"$ $ $ $ $ $ & S B Q OX#X#XOX X_ ^ V.7.i c.F.f.7.i ; % : : : : : ",
"# # # # # . & V B E |..X#X|.^._ / G.9.a z.U.t.L a O o # # # # # ",
"# # # # o   8 -.t i E ) .X~.W a.N.D.Z w ;.5.-.] w X # # # # # # ",
"< , , < < 3 6 X.C d E ) .X~.W w.9.2 ' X.| } } q 2 % r Y Y Y Y Y ",
"Y Y Y Y Y 3 6 X.C i E _ ~.` W g.r.3 ' X.=.,.,.| 2 9 T Q Q Q Q Q ",
"Y Y Y Y Y   6 X.C i g.M.( j.K.B.u.3 ' X.=.<.<.| 3 , Y Q Q Q Q Q ",
"Q Q Q Q Q 1 X 6 7 i V.c.c w.G.N.x.v.Z 6 q q q 0 @ & < Y Y Y Y Y ",
"Q Q Q Q Q : . X @ u V.f.i 0.G.d.x.N.v.K r.t.K D i & : Y Y Y Y Y ",
"T T T T T $ o + G e.B.d.i 7.C.B.x.u.x.x.Z.Z.f.0.k s - Y r Y Y Y ",
", , , , , $ O i e.G.f.y.i 8.d.C.N.x.x.x.u.u.D.p.6.j i , , , , , ",
", , , , , O + S i.D.p.0.i F y.d.x.D.N.x.7.7.x.f.p.A i , , , , , ",
"< , , , , i k 0.i.p.0.6.i F 0.0.0.u.u.x.G F u.u.p.A i , , , , , ",
", , , , , p i u d d d d i d i d u u i a d d p i p d p , , , , , ",
", , , , , $ # . $ $ $ $ $ < , 9 $ $ 9 M Y $ # # $ $ : , , , , < "
};
