/* XPM */
static char *result[] = {
/* columns rows colors chars-per-pixel */
"32 32 52 1 ",
"  c black",
". c #020202",
"X c gray1",
"o c #040404",
"O c gray2",
"+ c #060606",
"@ c #202020",
"# c #282828",
"$ c gray16",
"% c #2A2A2A",
"& c #2C2C2C",
"* c #2D2D2D",
"= c gray18",
"- c #313131",
"; c #323232",
": c gray20",
"> c #343434",
", c #353535",
"< c #373737",
"1 c #3A3A3A",
"2 c #3C3C3C",
"3 c #3E3E3E",
"4 c #3F3F3F",
"5 c #1D757A",
"6 c #434343",
"7 c #464646",
"8 c #4C4C4C",
"9 c gray31",
"0 c #585858",
"q c #1F7D82",
"w c #208186",
"e c #2CA5AB",
"r c #2DA5AB",
"t c #2FB1B7",
"y c #30B1B7",
"u c #30B1B8",
"i c #33BDC4",
"p c #0CCAD5",
"a c #0DD8E3",
"s c #03DFEB",
"d c #00E3EF",
"f c #03EEFB",
"g c #03EFFB",
"h c #00F2FF",
"j c #08F1FE",
"k c #10F3FF",
"l c #8AE8ED",
"z c #91EAEE",
"x c #DFDFDF",
"c c #EFEFEF",
"v c #EFFEFF",
"b c white",
/* pixels */
"77777&@@2222267722477&@@**;22222",
"77777&@@2222267722477&@@**;22222",
"77777&@@2222267722477&@@**;22222",
"77777&@@2222267722477&@@**;22222",
"77777&@@2222        7&@@**;22222",
"44444%@@;;Xocccccccco.@@<<,;;;;;",
"22222$@@**  bbbbbbbb  @@22<*****",
"22222$@@O.cckkkkkkzzyy.o22<*****",
"@@@@@@@@. bbhhhhhhllii .@@@@@@@@",
"@@@@@@o.xczzhhhhvvjjffyr.o@@@@@@",
"&&&&&&X cbllhhhhbbhhhhiu X&&&&&&",
"777777o cbhhbbllllllhhhd o777777",
"777777o cbhhbbllllllhhhd o777777",
"4444o cbkhbbhhhhhhhhiihkbc  4444",
"2222o cbkhbbhhhhhhhhiihkbc  2222",
"2222o cbkhllhhhhhhhhiihgiu  2222",
"****X cbkhllhhhhhhhhiihgiu  2222",
"****X cbzliihhhhhhhhiiqqq5  2222",
"$$$$. cbzliihhhhhhhhiiqqq5  ::::",
"@@@@. cbkhhhqqqqqqqqhhhgiu  @@@@",
"@@@@. cbkhhhqqqqqqqqhhhgiu  @@@@",
"11111#. dhqqaaaaaaaaqqhd o377777",
"77777&. sfqqaaaaaaaaqqfs o800000",
"77777&. uiqqaaaaaaaaqqiu o800000",
"00000-o.etwwaaaaaaaawwte.O,77777",
"00000-@@o iiaaaaaaaaii .**,77777",
"99999=@@+Xttpppppppptt.o**>66666",
"22222$@@**            @@**;22222",
"22222$@@*****<22**,77&@@**;22222",
"22222$@@*****<22**,77&@@**;22222",
"22222$@@*****<22**,77&@@**;22222",
"22222$@@*****<22**,77&@@**;22222"
};
