/* XPM */
static char *result[] = {
/* columns rows colors chars-per-pixel */
"32 32 204 2 ",
"   c #150C03",
".  c #160F06",
"X  c #1A0F04",
"o  c #1B0F04",
"O  c #140F0B",
"+  c #1B1003",
"@  c #1B1004",
"#  c #1B1106",
"$  c #1C1004",
"%  c #1D1104",
"&  c #1D1105",
"*  c #1F1104",
"=  c #1E1307",
"-  c #17120B",
";  c #181009",
":  c #1B1108",
">  c #19120B",
",  c #1D1308",
"<  c #1D1309",
"1  c #1C140B",
"2  c #1A150F",
"3  c #1E160D",
"4  c #1C150F",
"5  c #171513",
"6  c #141415",
"7  c #191510",
"8  c #181615",
"9  c #1F1812",
"0  c #1D1A17",
"q  c #1E1A17",
"w  c #181818",
"e  c #191919",
"r  c #1B1A19",
"t  c #1B1B1B",
"y  c #1C1B1B",
"u  c gray11",
"i  c #1E1E1E",
"p  c gray12",
"a  c #211304",
"s  c #231405",
"d  c #231505",
"f  c #251505",
"g  c #261704",
"h  c #261605",
"j  c #281705",
"k  c #291705",
"l  c #291805",
"z  c #2A1805",
"x  c #2A1905",
"c  c #2B1905",
"v  c #2C1A05",
"b  c #2E1A05",
"n  c #2F1A05",
"m  c #2E1B05",
"M  c #2F1B05",
"N  c #2C1A06",
"B  c #2D1A06",
"V  c #2E1B06",
"C  c #2F1B07",
"Z  c #2F1C06",
"A  c #311C06",
"S  c #311D06",
"D  c #311D07",
"F  c #321D06",
"G  c #331D06",
"H  c #331D07",
"J  c #331E06",
"K  c #341D07",
"L  c #341E06",
"P  c #351E06",
"I  c #351F06",
"U  c #351E07",
"Y  c #351F07",
"T  c #361F06",
"R  c #371F06",
"E  c #361F07",
"W  c #371F07",
"Q  c #201911",
"!  c #211A14",
"~  c #211C16",
"^  c #362006",
"/  c #372006",
"(  c #362007",
")  c #372007",
"_  c #382006",
"`  c #382106",
"'  c #382007",
"]  c #382107",
"[  c #392107",
"{  c #3A2106",
"}  c #3A2107",
"|  c #3B2107",
" . c #392207",
".. c #3A2206",
"X. c #3B2206",
"o. c #3A2207",
"O. c #3B2207",
"+. c #3B2307",
"@. c #3C2207",
"#. c #3C2307",
"$. c #3D2307",
"%. c #3E2307",
"&. c #3D2407",
"*. c #3E2407",
"=. c #3F2407",
"-. c #3F2507",
";. c #3C2308",
":. c #3D2308",
">. c #3D2408",
",. c #3F2408",
"<. c #21201F",
"1. c #26211E",
"2. c #25221F",
"3. c #28221D",
"4. c #202020",
"5. c #232120",
"6. c #272524",
"7. c gray15",
"8. c #292727",
"9. c #282828",
"0. c gray16",
"q. c #2A2A2A",
"w. c gray17",
"e. c #2C2C2C",
"r. c #2D2D2D",
"t. c gray18",
"y. c #2E2E2F",
"u. c gray19",
"i. c #313131",
"p. c #323232",
"a. c gray20",
"s. c #343434",
"d. c #353535",
"f. c gray21",
"g. c #373737",
"h. c #393939",
"j. c #3A3A3A",
"k. c gray23",
"l. c #3C3C3C",
"z. c gray24",
"x. c #3E3E3E",
"c. c #3F3F3F",
"v. c #402507",
"b. c #412507",
"n. c #412607",
"m. c #422607",
"M. c #432707",
"N. c #462807",
"B. c #402408",
"V. c #402508",
"C. c #412508",
"Z. c #402608",
"A. c #412608",
"S. c #422608",
"D. c #432608",
"F. c #422708",
"G. c #432708",
"H. c #442708",
"J. c #452708",
"K. c #442808",
"L. c #452808",
"P. c #452908",
"I. c #462808",
"U. c #462908",
"Y. c #472908",
"T. c #472A08",
"R. c #482A08",
"E. c #492A08",
"W. c #482B08",
"Q. c #492B08",
"!. c #482A09",
"~. c #4A2B08",
"^. c #4A2B09",
"/. c #4C2B08",
"(. c #4A2C08",
"). c #4B2C08",
"_. c #4A2C09",
"`. c #4B2C09",
"'. c #4C2C08",
"]. c #4C2D08",
"[. c #4C2C09",
"{. c #4D2C09",
"}. c #4C2E0C",
"|. c #5A360D",
" X c #523413",
".X c #623E15",
"XX c #644013",
"oX c #674214",
"OX c #694317",
"+X c #6A451A",
"@X c #6D461A",
"#X c #6F481A",
"$X c #6E481B",
"%X c #70491B",
"&X c #724A1C",
"*X c #434343",
"=X c #444444",
"-X c gray27",
";X c #464646",
":X c #464647",
">X c #4C4C4C",
",X c gray31",
"<X c #585858",
"1X c #875B27",
/* pixels */
";X;X;X;X;Xe.4.4.l.l.l.l.l.*X;X;Xl.l.c.;X;Xe.4.4.r.r.p.l.l.l.l.l.",
";X;X;X;X;Xe.4.4.l.l.l.w.X j j j j j j   g.e.4.4.r.r.p.l.l.l.l.l.",
";X;X;X;X;Xe.4.4.l.l.l.0 J o.[ F G ) } B <.e.4.4.r.r.p.l.l.l.l.l.",
";X;X;X;X;Xe.4.4.l.l.d.a [ *.A.A.A.A.) ( , q.4.4.r.r.p.l.l.l.l.l.",
";X;X;X;X;Xe.4.4.l.l.y F $.' A S B F ) ..A e 4.4.r.r.p.l.l.l.l.l.",
"c.c.c.c.c.q.4.4.p.i.: G } K $. X;.| C O._ ; 4.4.g.g.d.p.p.p.p.p.",
"l.l.l.l.l.0.4.4.r.u z #.( ,.,.+XD.B.,.E O.k w 4.l.l.g.r.r.r.r.r.",
"l.l.l.l.l.0.4.4.r.> / D O.G.M.$XL.H.n.} ' L O 4.l.l.g.r.r.r.r.r.",
"4.4.4.4.4.4.4.4.p o S.#.F..X%X1X&X#X}.*.] P X 4.4.4.4.4.4.4.4.4.",
"4.4.4.4.4.4.4.4.p = C.K.*.L.L.@XY.L.L.[ A.] 4 4.4.4.4.4.4.4.4.4.",
"e.e.e.e.e.e.e.e.i.! =.E.+.U.U.OXQ.Y.U.$.v./ 7 i.e.e.e.e.e.e.e.e.",
";X;X;X;X;X;X;X;X<X2.$.Y.X.E.Q.oX(.Q.E.O.*.^ 8.<X;X;X;X;X;X;X;X;X",
";X;X;X;X;X;X;X;X<Xu.[ J.+.Q._.XX]._.Q.) $.Z l.<X;X;X;X;X;X;X;X;X",
"c.c.c.c.c.=X;X;X-Xp.A S.>.`.).|.'.).&.[ @.h z.>X;X;X=Xc.c.c.c.c.",
"l.l.l.l.l.*X;X;Xl.d.d v.*.)./.[.[.[.T.O.O.% =X;X;X;X*Xl.l.l.l.l.",
"l.l.l.l.l.*X;X;Xl.k.& %. .).[.{.{.[./.} } < ;X;X;X;X*Xl.l.l.l.l.",
"r.r.r.r.r.r.r.r.l.l.1 E } Y.^.{.{.[.N._ ` 2 r.r.l.l.l.l.l.l.l.l.",
"r.r.r.r.r.r.r.r.l.l.q [ ] K.n.[.R.Y.*.$./ 8 r.r.l.l.l.l.l.l.l.l.",
"0.0.0.0.0.0.0.0.a.a.r R ,.v.~.J.).-.Z.*.G w 0.0.a.a.a.a.a.a.a.a.",
"4.4.4.4.4.4.4.4.4.4.6 M =.#.~.F.~.!.*.$.k w 4.4.4.4.4.4.4.4.4.4.",
"4.4.4.4.4.4.4.4.4.4.t s #.@.E.Q.P.W.] #.* i 4.4.4.4.4.4.4.4.4.4.",
"j.j.j.j.j.9.4.4.a.a.g.$ o.[ Y.Y.I.F.Y Y # 9.4.4.j.j.x.;X;X;X;X;X",
";X;X;X;X;Xe.4.4.l.l.-X3 _ T L.L.L.L.} { 9 e.4.4.;X;X>X<X<X<X<X<X",
";X;X;X;X;Xe.4.4.l.l.-X3.I L H.H.H.H._ ` 1.e.4.4.;X;X>X<X<X<X<X<X",
"<X<X<X<X<Xi.4.4.l.l.c.5.L G n.m.m.b.W T 7.e.4.4.r.r.d.;X;X;X;X;X",
"<X<X<X<X<Xi.4.4.l.l.c.q.V T @.B.:.U @.v i.e.4.4.r.r.d.;X;X;X;X;X",
",X,X,X,X,Xt.4.4.g.g.h.q.g ) L W $.H $.h f.e.4.4.r.r.s.*X*X*X*X*X",
"l.l.l.l.l.0.4.4.r.r.r.y.@ ^ c N S G @.+ :Xe.4.4.r.r.p.l.l.l.l.l.",
"l.l.l.l.l.0.4.4.r.r.r.u.. L =.=.V.:.O.Q ;Xe.4.4.r.r.p.l.l.l.l.l.",
"l.l.l.l.l.0.4.4.r.r.r.r.- l [ J ' [ A ~ ;Xe.4.4.r.r.p.l.l.l.l.l.",
"l.l.l.l.l.0.4.4.r.r.r.r.5 x b m m n f 6.;Xe.4.4.r.r.p.l.l.l.l.l.",
"l.l.l.l.l.0.4.4.r.r.r.r.r.g.l.l.r.r.d.;X;Xe.4.4.r.r.p.l.l.l.l.l."
};
