/* XPM */
static char *result[] = {
/* columns rows colors chars-per-pixel */
"32 32 178 2 ",
"   c #010101",
".  c #040C03",
"X  c #061405",
"o  c #091B06",
"O  c #0C1D0B",
"+  c #101E0E",
"@  c #151D14",
"#  c gray11",
"$  c #0C2B09",
"%  c #102A0D",
"&  c #142513",
"*  c #162D12",
"=  c #1E271C",
"-  c #163D14",
";  c #193E15",
":  c #1D3818",
">  c #202020",
",  c #2C2C2C",
"<  c #253324",
"1  c #2A3427",
"2  c #253B22",
"3  c #293F26",
"4  c #2C332C",
"5  c #2D3C2B",
"6  c #303B2E",
"7  c #333333",
"8  c #343B33",
"9  c #383E37",
"0  c #3C3C3C",
"q  c #045204",
"w  c #114611",
"e  c #1F441C",
"r  c #1C4C18",
"t  c #1C5517",
"y  c #1F5219",
"u  c #21451D",
"i  c #224D1D",
"p  c #23531D",
"a  c #21591B",
"s  c #096D08",
"d  c #047204",
"f  c #14730F",
"g  c #186715",
"h  c #1C7718",
"j  c #1D7B1A",
"k  c #24631C",
"l  c #23781D",
"z  c #294526",
"x  c #264B23",
"c  c #284A27",
"v  c #2E432C",
"b  c #2E4C2C",
"n  c #304D2F",
"m  c #285421",
"M  c #2B5B25",
"N  c #295B26",
"B  c #2D5229",
"V  c #325C2C",
"C  c #364334",
"Z  c #354B32",
"A  c #3D423C",
"S  c #3B4B38",
"D  c #345332",
"F  c #345C32",
"G  c #3A5D35",
"H  c #3D553A",
"J  c #3E5C3A",
"K  c #2C6524",
"L  c #286A24",
"P  c #2E6E28",
"I  c #33632D",
"U  c #366B2F",
"Y  c #297424",
"T  c #2A7A23",
"R  c #297428",
"E  c #307D26",
"W  c #366331",
"Q  c #3C6535",
"!  c #366A33",
"~  c #3B6C33",
"^  c #3D6239",
"/  c #3D6A3A",
"(  c #357331",
")  c #3B7334",
"_  c #3B7B34",
"`  c #40483E",
"'  c #405C3E",
"]  c #44633E",
"[  c #436A3C",
"{  c #427C3C",
"}  c #464646",
"|  c #464D45",
" . c #4D4D4D",
".. c #455D43",
"X. c #495F47",
"o. c #4B5749",
"O. c #585858",
"+. c #466444",
"@. c #486747",
"#. c #466A40",
"$. c #4E624B",
"%. c #4F694B",
"&. c #51654F",
"*. c #487042",
"=. c #457A40",
"-. c #4C7B46",
";. c #52764D",
":. c #517E4C",
">. c #566653",
",. c #546B52",
"<. c #5A6B57",
"1. c #5E665D",
"2. c #5D6A5B",
"3. c #5D7858",
"4. c #616A5F",
"5. c #61745F",
"6. c #148010",
"7. c #3D8334",
"8. c #29AB27",
"9. c #44843A",
"0. c #468B3B",
"q. c #478341",
"w. c #478840",
"e. c #4C8942",
"r. c #4E8048",
"t. c #508B47",
"y. c #52894C",
"u. c #588D4E",
"i. c #499443",
"p. c #509245",
"a. c #539A49",
"s. c #568350",
"d. c #598553",
"f. c #5B8B55",
"g. c #5B8758",
"h. c #599254",
"j. c #5F9358",
"k. c #61855D",
"l. c #65945C",
"z. c #619F5D",
"x. c #4AA741",
"c. c #55A14F",
"v. c #5AAB4F",
"b. c #4CB446",
"n. c #58B849",
"m. c #5AA453",
"M. c #60AF59",
"N. c #66BC59",
"B. c #6B8767",
"V. c #6A8B69",
"C. c #718C6E",
"Z. c #679563",
"A. c #699D60",
"S. c #768973",
"D. c #788078",
"F. c #67A162",
"G. c #6FA26C",
"H. c #73A86B",
"J. c #71B866",
"K. c #76B46D",
"L. c #7EB172",
"P. c #63C154",
"I. c #74D064",
"U. c #7EC673",
"Y. c #819F7C",
"T. c #82B97B",
"R. c #83C37B",
"E. c #8ACD7D",
"W. c #84AF80",
"Q. c #8EAF8E",
"!. c #8BB685",
"~. c #97B895",
"^. c #8BC282",
"/. c #8DCD81",
"(. c #90D187",
"). c #9BC499",
"_. c #A9CFA3",
"`. c #B0CFA8",
/* pixels */
"} } } } } , > > 0 0 0 0 A ) / g.B.| 0 } } , > > , , 7 0 0 0 0 0 ",
"} } } } } , > > 0 0 0 *.n.n.x.M.I.(.C.| } , > > 4 , 7 0 0 0 0 0 ",
"} } } } } , > > 0 @.G.v.N.).K.P.J.^.F.).A.7 > > , 7 7 0 0 0 0 0 ",
"} } } } } , > > o.c.b.8.b.K.).!._.E.I.m.) v > > , , 7 0 0 0 0 0 ",
"} } } } } , # > Z R T i.).~.z.Q.R.v.Y x ] } > > , , 7 0 7 0 0 0 ",
"} 0 0 0 } , > > v Y Y y.C.A.W.u.-.N q J H | > > 7 0 7 7 7 7 7 7 ",
"0 0 0 0 0 , > > 5 k : r.) e.[ U V F q n <.} > > 0 0 7 , , , , , ",
"0 0 0 0 0 , > > C { + ) I m S.J ..F / ,.#.S > > 0 0 0 , , , , , ",
"# > > > > > > > 7 d.r.m a O 5.+.2.K ,./ ^ ` > > > > > > > > > > ",
"> > > > > > > > 8 B.c O : ,.U ~ 4.W <.^ 2.0 > > > > > > > > > > ",
", , , , , , , , C p.2   . M 9.K 1.B Z V <.4 , 7 , , , , , , , , ",
"} } } } } } } } O.>.b D 1 * f.[ 1.+.$.] }  .O.O.} } } } } } } } ",
"} } } } } } } } O.O.C Q ;.w ( m &.] ^ M 0  .O.O.} } } } } } } } ",
"} 0 0 0 0 } } } } } J G 9.{ P _ -.V ..G 9 }  . .} } } 0 } 0 } 0 ",
"0 0 0 0 0 } } } 9 0 ' G a l g / I ] c c 0 } } } } } } 0 0 0 0 0 ",
"0 0 0 0 0 } } } 0 0 H :.M k j g g.J H b 0 } } } } } 0 0 0 0 0 0 ",
", , , , , , , , 0 9 ..r._ _ d f u G ; - , , , , 0 0 0 0 0 0 0 0 ",
", , , , , , , , 0 0 } ,.! e.s h ~ e t I 4 , , , 0 0 0 0 0 0 0 0 ",
", , , , , , , , 7 7 9 %.Z.j.T W t.i F [ 1 , , , 7 7 7 7 7 7 7 7 ",
"> # > > > # > > > > 5 U E l.0.#.;.i V r = # = > > > > > > # > > ",
"> # > > # > > > > > < L y h.y.:.V p z u :.$.> > > > > > > > > > ",
"0 0 0 0 0 , > > 7 7 H 7.#.,.s.=.~ ; M M a.E.K.6 0 0 0 } } } } } ",
"} } } } } , > > ` D.G.K.H.n Z./ _ V a t H.l.[ 2 } }  .O.O.O.O.O.",
"} } } } } , > 5 T.N.v.U./.j.a.) ) [ a Q [ M ] - } }  .O.O.O.O.O.",
"O.O.O.O.O.7 > w 6.w.^.`.!.!.J.U.A.;.:.k.X.J i - , , 7 } } } } } ",
"O.O.O.O.O.7 > : s ! V.i.P.P./.L.:.9.;.0.3.[ K z , , 7 } } } } } ",
" . . . . ., > 3 g.q.V.d L Y.d.I M $ & ~ 3.I I Z , , 7 } 0 } } } ",
"0 0 0 0 0 , > 2 / 0.9.R ( S.B ^ y $ $ o C G M 5 7 , 7 0 0 0 0 0 ",
"0 0 0 7 0 , # @ . z ~ q.y.u.,.Q y 1 4 = % 6 > > , , 7 0 0 0 0 0 ",
"0 0 0 0 0 , > # $ o . e I e.<.K W 8 7 } } , > > , , 7 0 0 0 0 0 ",
"0 0 0 0 0 , > > , > * X o * >.M V 8 7 } } , > > , , 7 0 0 0 0 0 ",
"0 0 0 0 0 , # > , , , , @ & 5 H 4 7 7 } } , > > , , 7 0 0 0 0 0 "
};
