/* XPM */
static char *result[] = {
/* columns rows colors chars-per-pixel */
"32 32 113 2 ",
"   c #1A3131",
".  c #202020",
"X  c #262321",
"o  c #282828",
"O  c gray16",
"+  c #2A2A2A",
"@  c #2C2C2C",
"#  c #2D2D2D",
"$  c gray18",
"%  c #313131",
"&  c #323232",
"*  c gray20",
"=  c #313733",
"-  c #343434",
";  c #353535",
":  c #373737",
">  c #3E3435",
",  c #3D3637",
"<  c #393939",
"1  c #3A3A3A",
"2  c #3C3C3C",
"3  c #3E3E3E",
"4  c #3F3F3F",
"5  c #433328",
"6  c #40362F",
"7  c #543C2C",
"8  c #443638",
"9  c #47383A",
"0  c #513D30",
"q  c #4C413B",
"w  c #5E4432",
"e  c #504238",
"r  c #65452F",
"t  c #654630",
"y  c #654C3B",
"u  c #664C3B",
"i  c #785036",
"p  c #7C5235",
"a  c #7D5439",
"s  c #373C54",
"d  c #373C59",
"f  c #353B5F",
"g  c #343D68",
"h  c #294848",
"j  c #2F4E4E",
"k  c #38416C",
"l  c #374174",
"z  c #36437C",
"x  c #3A4379",
"c  c #2B547F",
"v  c #395573",
"b  c #086A6A",
"n  c #434343",
"m  c #474442",
"M  c #444444",
"N  c #464646",
"B  c #4C4C4C",
"V  c gray31",
"C  c #5B4F47",
"Z  c #5B474A",
"A  c #5F534B",
"S  c #585858",
"D  c #685345",
"F  c #6F5A4C",
"G  c #625851",
"H  c #645850",
"J  c #655951",
"K  c #7F6B5C",
"L  c #615A68",
"P  c #4D776A",
"I  c #895D3F",
"U  c #84634D",
"Y  c #956748",
"T  c #8E6B53",
"R  c #8E725F",
"E  c #997259",
"W  c #987359",
"Q  c #A17251",
"!  c #A17252",
"~  c #A37A5E",
"^  c #A37A5F",
"/  c #AE7D5B",
"(  c #937764",
")  c #BB8765",
"_  c #B98F73",
"`  c #C08D6A",
"'  c #C18D6A",
"]  c #C19272",
"[  c #CC9A79",
"{  c #D5A17E",
"}  c #384681",
"|  c #2C5581",
" . c #38649D",
".. c #4A579A",
"X. c #606B9D",
"o. c #6E6D9C",
"O. c #4859A5",
"+. c #0A8787",
"@. c #0B8C8C",
"#. c #0B9898",
"$. c #0C9F9F",
"%. c #189F9E",
"&. c #388A82",
"*. c #3AA098",
"=. c #0DA5A5",
"-. c #0EAFAF",
";. c #3BA8A0",
":. c #5B9385",
">. c #409E95",
",. c #909B83",
"<. c #91A58D",
"1. c #91AA93",
"2. c #E0A882",
/* pixels */
"N N N N N @ . X q i p p p p p p p p p p p p p p w 6 & 2 2 2 2 2 ",
"N N N N N @ . 5 p p p p p p p p p p p p p p p p p p & 2 2 2 2 2 ",
"N N N N N @ . 5 p p p p p p p p p p p p p p p p p p & 2 2 2 2 2 ",
"N N N N N @ . 5 p p p p p p p p p p p p p p p p p p & 2 2 2 2 2 ",
"N N N N N @ . 5 p p p p p p p p p p p p p p p p p p & 2 2 2 2 2 ",
"4 4 4 4 4 + 7 t p p p p p p p p p p ! ) ) Y p p p p ; & & & & & ",
"2 2 2 2 2 O r a I I I I I I I I I I ` 2.2.Q p p p p : # # # # # ",
"2 2 2 2 2 O . D 2.2.2.2.2.2.2.2.2.2.2.2.2.Q p p p p : # # # # # ",
". . . . . . . D 2.U W 2.2.2.2.T U 2.2.2.2.Q p ) ) ) . . . . . . ",
". . . . . . . D 2.0 u 2.2.2.2.y 0 2.2.2.2.Q p 2.2.2.. . . . . . ",
"@ @ @ @ @ @ @ F 2.0 u 2.2.2.2.y 0 2.2.2.2.Q p 2.2.2.@ @ @ @ @ @ ",
"N N N N N N N K 2.E ~ 2.2.2.2.^ W 2.2.2.2.' / 2.2.2.N N N N N N ",
"N N N N N N N K 2.2.2.2.2.2.2.2.2.2.2.2.2.2.2.2.2.2.N N N N N N ",
"4 4 4 4 4 M N K 2.2.2.2.2.2.2.2.2.2.2.2.2.2.2.2.2.2.M 4 4 4 4 4 ",
"2 2 2 2 2 n N G R { 2.2.2.2.2.2.2.2.2.2.2.2.2.2._ ( n 2 2 2 2 2 ",
"2 2 2 2 2 n N N 2 [ 2.2.2.2.2.2.2.2.2.2.2.2.2.2.( N n 2 2 2 2 2 ",
"# # # # # # # # 2 2 j +.=.-.-.-.-.-.-.-.-.-.-.# 2 2 2 2 2 2 2 2 ",
"# # # # # # # # 2 2 j +.=.-.-.-.-.-.-.-.-.-.-.# 2 2 2 2 2 2 2 2 ",
"O O O O O O O O * * h +.=.-.-.-.-.-.-.-.-.-.-.O * * * * * * * * ",
". . . . . . . . . .   b $.-.-.-.-.-.#.@.@.@.@.. . . . . . . . . ",
". . . . . . . . . . = P %.-.-.-.-.-.>.:.:.:.:.. . . . . . . . . ",
"1 1 1 1 1 o . . * * C ] ;.-.-.-.-.-.1.2.2.2.2.. 1 1 3 N N N N N ",
"N N N N N @ . . 2 2 H ] ;.-.-.-.-.-.1.2.2.2.2.. N N B S S S S S ",
"N N N N N @ . . 2 2 H ] *.=.=.=.=.=.<.2.2.2.2.. N N B S S S S S ",
"S S S S S % . . 2 2 A ] &.+.+.+.+.+.,.2.2.2.2.. # # ; N N N N N ",
"S S S S S % . . 2 2 m J v c c c |  .X.o.o.L e . # # ; N N N N N ",
"V V V V V $ . . : : < 3 k z z z } O.O.O.O.d . . # # - n n n n n ",
"2 2 2 2 2 O . . # # # # g z z z } O.O.O.O.d . . # # & 2 2 2 2 2 ",
"2 2 2 2 2 O . . # # # # g z z z } O.O.O.O.d . . # # & 2 2 2 2 2 ",
"2 2 2 2 2 O . . # # # # f l l l x ........s . . # # & 2 2 2 2 2 ",
"2 2 2 2 2 O . . # # # # > 8 8 8 9 Z Z Z Z , . . # # & 2 2 2 2 2 ",
"2 2 2 2 2 O . . # # # # > 8 8 8 9 Z Z Z Z , . . # # & 2 2 2 2 2 "
};
