/* XPM */
static char *result[] = {
/* columns rows colors chars-per-pixel */
"32 32 24 1 ",
"  c #33003F",
". c #2F004D",
"X c #320043",
"o c #30004B",
"O c #2F0053",
"+ c #2F0058",
"@ c #300054",
"# c #31005B",
"$ c #330063",
"% c #36006A",
"& c #39006E",
"* c #3D0073",
"= c #3F0078",
"- c #400077",
"; c #43007A",
": c #48007F",
"> c #470080",
", c #4C0084",
"< c #4F0088",
"1 c #500187",
"2 c #54028A",
"3 c #59028E",
"4 c #5F0391",
"5 c #630494",
/* pixels */
"--22>:&&%&#$$$*&%%oo#+-===+OXo.X",
"--22>:&&%&#$%$&&%%oo+#;===@OXX.X",
"::--=;-;@@XX$$$%--####**OOo@#+OO",
";;-=--;-@@XX$$%%--#$#$=*++oo++OO",
"##%&=-@@XX#$>>&&22***&<<&&ooXX$$",
"@@%%=-ooXX$$,,*&22**&&2,&*ooXX$$",
"XX$$O.XX$#22,,.O++#+oo&&33-%XXXX",
"XX$$OOXX$#22,>O@#++#oo&&33&&X XX",
"@@OOXX$$,<;;@oXXXX$$X.XX%%,,&&XX",
"@O.@XX$$,,::@oXXXX$+.X.X&%,,&%XX",
"**$$%%22-;OOXX##++&&&&XXoo%&33&&",
"-*$$%&22-*O.XX###$&&&*XXo@%%33&*",
">,%$-->,@oXX@@**;;**1,&&Xooo--;;",
"::$$*->,ooXX@@-*>:&*11&*XXXo--;:",
"$$XX$$$$OO#####+55--*-35**oo.O$#",
"$%oX$$%$O@#+####55--**53**ooO@$$",
"&%OO##$%O+OOooOO$$$$1,>,#$..OO=*",
"%%OO+$$$OOOOooO@$$$$,,,,+#X..O-=",
",,$$*=,1OOXXooXooo$$%%-***$$%%2,",
",,$$**,,O#XX.oooXo$$%&;=*=$$%%,2",
"%%O@##22,1@@ X@#$###$%22--@@@@%%",
"$$@@O#2211@@XX#@#$#@%%22--@o@@%$",
"$$O@oX+O,,2,$#++%$&&33::o.XX$%&*",
"$$+OXX+#<,11$+++$$%&23::.o X$$&&",
"**32$#oX@O22,1%%%%332,@@XX%%23-;",
"**22##Xo@@221,%$%%22<,#@ X$%23;-",
"%%,233+#  @#::**&*>>@O@o%$44,>%$",
"%%,244##XX@#;:**&&::@Oo@%&44>;%$",
"%%$&23>,o@oo$$#$#$##X $$35;-###$",
"$%%%23,<o@Xo#$##$#@@  $$55-*##+$",
"+O>,-***%%$$****&&$$$$11**.Ooo+#",
"#+>>;=**%%$$****&&#$$$,,*-@.o.#+"
};
