/* XPM */
static char *result[] = {
/* columns rows colors chars-per-pixel */
"32 32 177 2 ",
"   c #372A17",
".  c #382B18",
"X  c #382B19",
"o  c #392C19",
"O  c #3A2D1A",
"+  c #3B2E1B",
"@  c #3C2F1C",
"#  c #3C2F1D",
"$  c #3D301D",
"%  c #3E301C",
"&  c #3E311C",
"*  c #3F311C",
"=  c #3E311D",
"-  c #3F311D",
";  c #3F321D",
":  c #3E311E",
">  c #3E311F",
",  c #3F321F",
"<  c #3F3220",
"1  c #40321D",
"2  c #403320",
"3  c #413421",
"4  c #433520",
"5  c #433421",
"6  c #423522",
"7  c #433623",
"8  c #443621",
"9  c #473721",
"0  c #453722",
"q  c #453723",
"w  c #463722",
"e  c #473821",
"r  c #453823",
"t  c #463823",
"y  c #453825",
"u  c #463824",
"i  c #463924",
"p  c #473924",
"a  c #463926",
"s  c #493922",
"d  c #483923",
"f  c #493923",
"g  c #4A3B24",
"h  c #4A3B25",
"j  c #493B26",
"k  c #4A3C27",
"l  c #4C3D25",
"z  c #4C3D26",
"x  c #4D3E27",
"c  c #4A3C28",
"v  c #4C3D28",
"b  c #504028",
"n  c #504128",
"m  c #58472C",
"M  c #58472D",
"N  c #5E4B2B",
"B  c #5F4B2B",
"V  c #5F4B2F",
"C  c #5F4C2C",
"Z  c #5E4B30",
"A  c #5F4B30",
"S  c #5F4C30",
"D  c #614D2C",
"F  c #604C2D",
"G  c #624E2D",
"H  c #624F2D",
"J  c #634F2E",
"K  c #624F2F",
"L  c #63502E",
"P  c #64502F",
"I  c #65502F",
"U  c #604C30",
"Y  c #604D30",
"T  c #604D31",
"R  c #624F30",
"E  c #635031",
"W  c #645030",
"Q  c #655030",
"!  c #655130",
"~  c #645031",
"^  c #645131",
"/  c #665130",
"(  c #665131",
")  c #655231",
"_  c #665231",
"`  c #655232",
"'  c #675232",
"]  c #675332",
"[  c #675435",
"{  c #685332",
"}  c #685433",
"|  c #6A5533",
" . c #6C5633",
".. c #695434",
"X. c #695534",
"o. c #685535",
"O. c #6A5534",
"+. c #6A5535",
"@. c #695634",
"#. c #6A5634",
"$. c #6A5635",
"%. c #6B5635",
"&. c #685536",
"*. c #6B5636",
"=. c #6B5736",
"-. c #6C5734",
";. c #6D5734",
":. c #6D5735",
">. c #6C5737",
",. c #6E5835",
"<. c #6C5836",
"1. c #6C5837",
"2. c #6D5837",
"3. c #6E5936",
"4. c #6F5A37",
"5. c #6C5838",
"6. c #6D5838",
"7. c #6D5938",
"8. c #6E5938",
"9. c #6E5939",
"0. c #6E5A39",
"q. c #6F5B3A",
"w. c #705B38",
"e. c #715B38",
"r. c #725C39",
"t. c #715C3A",
"y. c #705C3B",
"u. c #725C3A",
"i. c #745C3A",
"p. c #745C3B",
"a. c #755D3B",
"s. c #765D3B",
"d. c #745E3B",
"f. c #765D3C",
"g. c #745E3C",
"h. c #745F3C",
"j. c #7A613D",
"k. c #7C623E",
"l. c #7C623F",
"z. c #8A6B41",
"x. c #8A6C41",
"c. c #8A6D41",
"v. c #8F6F40",
"b. c #8C6E42",
"n. c #8C6E43",
"m. c #8D6F44",
"M. c #8D6F45",
"N. c #8E7044",
"B. c #8E7045",
"V. c #8F7145",
"C. c #8F7146",
"Z. c #8F7246",
"A. c #917142",
"S. c #927143",
"D. c #927243",
"F. c #907144",
"G. c #907245",
"H. c #937344",
"J. c #947345",
"K. c #947445",
"L. c #957546",
"P. c #967647",
"I. c #917448",
"U. c #947448",
"Y. c #947549",
"T. c #977648",
"R. c #977748",
"E. c #987749",
"W. c #987849",
"Q. c #99794A",
"!. c #9A794B",
"~. c #9A7A4B",
"^. c #9B7B4C",
"/. c #9B7C4D",
"(. c #9C7C4D",
"). c #9D7D4E",
"_. c #9F7F50",
/* pixels */
"a c X.X.1.r.^.Z.$ 4 7.u.L.c.3 r _ ! } ] ] _ l.l.7.1.l.l.X.X.(.(.",
"a c } X.=.t.^.Z.$ 4 7.u.L.x.3 r ! ! ] ] _ _ l.l.7.6.l.l.X...(.(.",
", 8 ! ( q.[ . o , g W.m.3 r _ -.Q.Q.$ $ } } ~.~.z z l.k.z z L.L.",
", 8 ! ! q.&.. o , g W.m.3 r !  .Q.Q.$ $ } } ~.~.z z l.k.z z L.L.",
"O - A S P F 3 t } ,.Q.N.: 4 ] ;.W.W.@ # ] _ l.k.z z l.k.z z Q.Q.",
"O = Z S P F 3 t { ,.Q.N.: 4 _ ;.W.W.@ # _ _ l.k.z z l.k.z l Q.Q.",
"7.&.y j J B 2 p l.l.l.p.: 4 } 3.W.W.@ # } ] W.W.$ $ (.(.6 6 l.l.",
"7.o.y j G N 2 p l.l.l.p.: 5 } ,.W.E.@ # ] ] W.W.$ $ (.(.6 6 l.l.",
"$.` 3 u 1.=.] O.l.l.l.j.1.=.] } 0.7.6 6 $.X.~.~.$ $ ~.~.@ @ l.k.",
"X.` 3 u 1.=.] | l.k.k.j.1.=._ ] 0.0.6 6 $.X.~.~.$ $ ~.~.@ @ k.k.",
"1.$.A T 1.=._ ;.~.U.} ] _ _ $.$.=.=.$ $ X.X.v.v.: : l.l.2 2 ] _ ",
"=.$.V U =.*.! -.~.Y.} ] ! _ X.@.$.%.$ $ ....v.v.: : l.l.2 2 ] _ ",
"} O.l.f.z b 1.e.R.F.G G } K @ 9 A.A.@ @ l.k.M M     l.l.: : 0.7.",
"] O.l.s.z b 1.e.R.G.D H ] R @ 9 A.A.@ @ l.k.m m     l.l.: : 0.7.",
"=.e.~.V.: 8 =.w.^.Z.$ f ~.C.3 z Q.Q.O O l.k.z z _ ! l.l., , 0.7.",
"=.e.~.V.: 8 =.w.^.Z.$ s ~.C.3 z Q.Q.O O l.k.z z ! / k.l., , 9.9.",
"X.3.Q.B., 0 y.g.K.x.3 t X.^ 2 0 X.X.6 6 H.H.@ # 1.=.=.$., , l.l.",
"X.4.Q.B., 0 y.g.J.z.3 r } ~ 2 q X.X.6 6 H.H.@ # =.=.=.*., , l.l.",
"X.4.(.I.a c ] ] 7.t.K.x.6 p $.$.$.$.o X L.L.6 6 =.=.L.L.3 3 l.l.",
"} 4.(.I.a k _ ] 7.u.K.x.6 p $.#.X.+.o o L.L.6 6 $.$.L.L.3 3 k.k.",
"y v l.p.2 0 $.@.] ;.P.c.O * P C : > A Z _._.2 2 $.$.^.^.7 7 L.L.",
"y v l.p.2 0 $.$.] ;.P.c.O - L C : > A Z _._.2 2 $.$.^.^.7 7 L.L.",
": w l.p., 8 ] ] q.d.~.C.6 x ~.B.. X A Z ).).$ $ 1.1.R.R.@ @ ^.^.",
": w k.i., 8 _ ] q.h.~.C.6 x !.M.. . Z Z ).).$ $ =.>.T.R.@ @ ^.^.",
"+ e ~.B.o & _ _ =.e.~.B.. % $.) , < ! ! R.R.@ # $.X.G D 2 2 W.W.",
"+ e !.N.o & _ _ =.e.~.N.X % X.^ , , W Q T.R.@ # $.@.D D 2 2 W.W.",
"3 i 7.*.A T 1.=.} O.l.f.z n 0.9.7.7.J J ] ] $ $ $.$.K.K.(.(.O O ",
"3 i 7.*.A Y =.=.] O.l.f.z n 0.8.5.6.G H _ ' $ $ $.$.K.J.(./.O O ",
"O 1 ] :.R.b.2 q =.2.l.f.z h : d D.D.} ] W.W.+ + ! ! l.l.$ $ ] _ ",
"O ; ] ;.R.n.2 q $.<.k.a.z h : d S.D.] { E.W.+ + ! ! k.k.$ $ ] _ ",
"A S } O.l.p.: 4 P I X.} } E 2 0 X.} 1.1.] _     ] _ X.} ! ! l.l.",
"A S } O.l.p.: 4 P P X.} } E 2 0 X.} 1.1.] _     ] _ X.} ! ! l.l."
};
